<?xml version="1.0" encoding="utf-8"?>
<!-- Generator: Adobe Illustrator 24.1.1, SVG Export Plug-In . SVG Version: 6.00 Build 0)  -->
<svg version="1.1" id="Layer_1" xmlns="http://www.w3.org/2000/svg" xmlns:xlink="http://www.w3.org/1999/xlink" x="0px" y="0px"
	 viewBox="0 0 500 380" style="enable-background:new 0 0 500 380;" xml:space="preserve">
<style type="text/css">
	.st0{stroke:#000000;stroke-width:2;stroke-miterlimit:10;}
	.st1{stroke:#000000;stroke-width:2;stroke-miterlimit:10;}
	.st2{stroke:#000000;stroke-width:2;stroke-miterlimit:10;}
	.st3{stroke:#000000;stroke-width:2;stroke-miterlimit:10;}
	.st4{stroke:#000000;stroke-width:2;stroke-miterlimit:10;}
</style>
<g id="Layer_15">
	<g id="BUILDER" fill="#fff">
		<path d="M418,323.5v-17.4c0-2.6-1-3.6-4-4.4c-1.2-0.2-2.4-0.3-3.6-0.3c-0.9,0-1.6-0.3-1.6-0.9s0.7-0.8,2.1-0.8
			c4.8,0,10.6,0.2,12.5,0.2c3.1,0,11.4-0.2,14.2-0.2c5.8,0,12.5,0.5,17.3,3.5c3.9,2.5,6.3,6.7,6.4,11.3c0,6.1-3.7,11.4-12.7,18.1
			c3.3,4,7,8.2,11,12.4c2.6,2.7,5.6,5.5,8.2,7.9c-1.2-2.7-1.9-5.6-2.1-8.6c-0.2-3.4,0.3-6.8,1.4-10c1.4,4.6,4.1,8.6,7.9,11.6
			c2.3,1.8,4.8,3.1,7.5,4.1c-1.7,3.1-3.9,5.8-6.7,8c-1.4,1.3-3.1,2.2-4.9,2.8c-3.1,0.9-6.5,0.5-9.3-1.1
			c-7.1-4.8-17.5-19.4-21.3-22.9c-0.5-0.4-1.1-0.6-1.7-0.6l-8.2-0.2c-0.4,0-0.8,0.2-0.8,0.7v1.2c0,7.6,0,14,0.5,17.4
			c0.3,2.4,0.7,4,3.5,4.3c1.5,0.2,3,0.3,4.5,0.3c0.5-0.1,1.1,0.3,1.1,0.8c0,0,0,0,0,0c0,0.6-0.7,0.9-1.9,0.9
			c-5.3,0-12.9-0.3-14.2-0.3c-1.8,0-7.6,0.3-11.3,0.3c-1.1,0-1.8-0.3-1.8-0.9s0.3-0.9,1.5-0.9c1.1,0,2.2-0.1,3.2-0.3
			c1.9-0.4,2.4-1.9,2.7-4.3c0.4-3.5,0.4-9.9,0.4-17.4L418,323.5z M429.6,329.8c-0.1,0.6,0.2,1.2,0.8,1.4c2.3,0.6,4.6,0.8,7,0.8
			c2.2,0.3,4.5-0.2,6.5-1.4c4-2.7,6.2-7.3,5.9-12.1c0-11.6-8.5-14.6-13.9-14.6c-1.8,0-3.6,0.1-5.4,0.3c-0.5,0.1-0.9,0.6-0.8,1.1
			c0,0,0,0,0,0L429.6,329.8z"/>
		<path d="M360.8,323.6c0-12.4,0-14.7-0.1-17.3s-1-3.6-3.9-4.4c-1.2-0.2-2.4-0.3-3.6-0.3c-0.9,0-1.5-0.3-1.5-0.9
			s0.7-0.8,2.1-0.8c4.8,0,10.6,0.2,13.2,0.2h24.9c1.3,0,2.6-0.2,3.8-0.5c0.5-0.2,1-0.3,1.5-0.4c0.5,0,0.6,0.4,0.6,0.8
			c-0.4,1.7-0.6,3.5-0.7,5.3c-0.1,1.8-0.3,3.6-0.5,5.4c0,0.4-0.3,1.4-1,1.4s-0.7-0.4-0.7-1c0-1-0.2-2.1-0.6-3c-0.7-1.4-1.5-2.6-6-3
			c-1.5-0.2-12.5-0.4-14.3-0.4c-0.4,0-0.6,0.3-0.6,0.8v20.2c0,0.5,0,0.9,0.6,0.9c2.1,0,13.9,0,16-0.2s3.5-0.4,4.4-1.3s1-1,1.5-1
			c0.4,0,0.8,0.4,0.7,0.9l0,0c0,0.5-0.2,1.8-0.7,6c-0.2,1.6-0.4,4.9-0.4,5.5s0,1.8-0.9,1.8s-0.8-0.3-0.8-0.7c-0.1-0.9-0.1-1.9-0.3-3
			c-0.5-1.6-1.7-2.9-5.1-3.2c-1.7-0.2-12-0.4-14.3-0.4c-0.4,0-0.5,0.4-0.5,0.9v6.5c0,2.8-0.1,9.7,0,12.1c0.2,5.6,3,6.8,12.4,6.8
			c2.9,0.1,5.8-0.2,8.6-1c2.3-1,3.3-2.7,3.9-6.1c0.2-0.9,0.4-1.3,1.1-1.3s0.8,1,0.8,1.9c-0.1,3.1-0.6,6.1-1.3,9.1
			c-0.6,2.1-1.4,2.1-4.9,2.1c-6.8,0-12.4,0-16.8-0.3s-7.9-0.2-10.6-0.2h-5.2c-2.2,0-4.5,0.2-6.3,0.2c-1.1,0-1.8-0.3-1.8-0.9
			s0.3-0.9,1.4-0.9c1.1,0,2.2-0.1,3.2-0.3c1.9-0.4,2.4-1.9,2.7-4.3c0.4-3.5,0.4-9.9,0.4-17.4L360.8,323.6z"/>
		<path d="M276.2,323.5v-17.2c0-2.6-1-3.6-4-4.4c-1.2-0.2-2.4-0.3-3.6-0.3c-0.9,0-1.5-0.3-1.5-0.9
			c0-0.6,0.7-0.7,2.1-0.7c4.8,0,10.6,0.2,13.2,0.2s9.4-0.2,14.9-0.2c11.4,0,26.8,0,36.8,9.2c5.7,5.3,8.8,12.8,8.6,20.6
			c0,8.6-3.6,16.8-10,22.6c-4.1,3.8-13.7,9.5-30.5,9.5c-3.3,0-7.3-0.3-10.9-0.5c-3.6-0.2-7-0.5-9.2-0.5h-5.2c-2.2,0-4.5,0.2-6.3,0.2
			c-1.1,0-1.8-0.3-1.8-0.9s0.3-0.9,1.5-0.9c1.1,0,2.2-0.1,3.2-0.3c1.9-0.4,2.4-1.9,2.7-4.3c0.4-3.4,0.4-9.8,0.4-17.3L276.2,323.5z
			 M288.5,332.5c0,8.6,0.1,14.8,0.2,16.4c-0.1,2,0.3,3.9,1,5.7c1.1,1.5,4.8,3.2,12,3.2c8.3,0,14.4-1.3,19.9-5.5
			c5.9-4.5,7.8-11.8,7.8-20.1c0-10.3-4.5-17-8.5-20.2c-8.4-6.8-18.4-7.7-25.5-7.7c-1.9-0.1-3.8,0.1-5.6,0.6
			c-0.7,0.2-1.2,0.9-1.1,1.6c-0.1,2.8-0.1,9.4-0.1,15.8L288.5,332.5z"/>
		<path d="M229.2,338c0,10.5,0,15.7,2,17.3c1.6,1.3,5.1,1.7,12.1,1.7c4.9,0,8.4-0.1,10.7-2.3c1.2-1.4,2-3.1,2.3-4.9
			c0.1-0.8,0.3-1.3,1-1.3s0.8,0.9,0.8,1.8c-0.2,3.2-0.6,6.3-1.4,9.4c-0.6,1.8-1,2.3-5.8,2.3c-6.6,0-11.9,0-16.4-0.3
			s-8.4-0.2-12.1-0.2h-5.2c-2.2,0-4.5,0.2-6.3,0.2c-1.1,0-1.8-0.3-1.8-0.9s0.3-0.9,1.5-0.9c1.1,0,2.2-0.1,3.2-0.3
			c1.9-0.4,2.4-1.9,2.7-4.3c0.4-3.5,0.4-9.9,0.4-17.4v-14.4c0-12.4,0-14.7-0.1-17.3s-1-3.6-3.9-4.4c-1-0.2-2-0.3-3-0.3
			c-1.1,0-1.6-0.3-1.6-0.9s0.6-0.8,2-0.8c4.3,0,10.1,0.2,12.6,0.2s9.6-0.2,13.2-0.2c1.4,0,2,0.2,2,0.8s-0.5,0.9-1.6,0.9
			c-1.2,0-2.4,0.1-3.5,0.3c-2.5,0.4-3.2,1.5-3.4,4.4s-0.2,4.9-0.2,17.3L229.2,338z"/>
		<path d="M176.6,323.8v-17.4c0-2.6-1.1-3.7-3.1-4.3c-1.1-0.3-2.2-0.4-3.3-0.4c-0.9,0-1.4-0.2-1.4-1s0.7-0.7,2.3-0.7
			c3.4,0,9.6,0.2,12.2,0.2s8.2-0.2,11.7-0.2c1.1,0,1.9,0.2,1.9,0.7s-0.5,1-1.5,1c-0.9,0-1.8,0.1-2.7,0.3c-2.5,0.4-3.2,1.6-3.4,4.4
			s-0.2,4.9-0.2,17.4v14.4c0,7.9,0,14.5,0.4,17.9c0.3,2.3,1,3.5,3.6,3.9c1.6,0.2,3.1,0.3,4.7,0.3c1,0,1.4,0.5,1.4,0.9
			s-0.7,0.9-1.8,0.9c-6,0-12.3-0.3-14.8-0.3c-2.1,0-8.3,0.3-11.9,0.3c-1.1,0-1.8-0.3-1.8-0.9s0.3-0.9,1.5-0.9c1.1,0,2.2-0.1,3.2-0.3
			c1.9-0.4,2.4-1.6,2.7-4c0.4-3.4,0.4-9.9,0.4-17.8L176.6,323.8z"/>
		<path d="M94.8,323.4c0-12.2,0.1-14.5-0.1-17s-1-3.6-3.9-4.3c-1.2-0.2-2.3-0.3-3.5-0.3c-1,0-1.6-0.3-1.6-0.9
			c0-0.6,0.6-0.7,2-0.7c4.9,0,11,0.2,13.7,0.2c2.3,0,8.4-0.2,11.7-0.2c1.3,0,2,0.2,2,0.7c0,0.6-0.5,0.9-1.5,0.9
			c-0.9,0-1.8,0.1-2.7,0.3c-2.4,0.4-3.1,1.5-3.3,4.3c-0.2,2.8-0.2,4.8-0.2,17v11.2c0,11.8,2.5,16.3,7,19.5c3.4,2.3,7.4,3.4,11.5,3.2
			c4.5,0.1,8.8-1.4,12.3-4.3c5.1-4.3,5.3-11.3,5.3-19.6v-10.1c0-12.2-0.1-14.5-0.2-17s-0.9-3.6-3.9-4.3c-1.1-0.2-2.2-0.3-3.3-0.3
			c-1,0-1.6-0.3-1.6-0.9s0.6-0.7,1.9-0.7c4.7,0,10.8,0.2,10.9,0.2c1,0,7.2-0.2,10.7-0.2c1.3,0,1.9,0.2,1.9,0.7s-0.5,0.9-1.6,0.9
			c-0.9,0-1.8,0.1-2.7,0.3c-2.5,0.4-3.1,1.5-3.3,4.3s-0.2,4.8-0.2,17v8.6c0,9-1,18.4-8.7,24.2c-5.6,4.1-12.4,6.1-19.3,5.8
			c-4.8,0-14.2-0.2-20.9-5.5c-4.7-3.7-8.3-9.6-8.3-21.3L94.8,323.4z"/>
		<path d="M27.7,316.8c0-14.6,0-17.3-0.2-20.4s-1-4.8-4.5-5.5c-1.3-0.2-2.7-0.3-4.1-0.3c-1.1,0-1.8-0.2-1.8-0.9
			s0.7-0.9,2.3-0.9c5.5,0,12,0.3,14.1,0.3c5.1,0,9.2-0.3,12.7-0.3c18.8,0,22.1,9.3,22.1,14.4c0,7.9-4.9,12.6-10.6,16.9
			c8.5,2.7,18.9,9.5,18.9,20.8c0,10.3-8.6,21-27.7,21c-1.2,0-4.3-0.2-7.3-0.3s-6.2-0.3-7.8-0.3h-5.9c-2.5,0-5.1,0.2-7.1,0.2
			c-1.4,0-2.1-0.3-2.1-1s0.4-0.8,1.7-0.8c1.3,0,2.5-0.1,3.7-0.4c2.1-0.4,2.6-2.5,3-5.3c0.5-4.1,0.5-11.7,0.5-20.5L27.7,316.8z
			 M40.2,318.5c0,0.8,0.3,1,0.7,1.1c1.6,0.2,3.2,0.3,4.9,0.3c2.6,0.3,5.3-0.3,7.5-1.8c3-2.5,4.6-6.3,4.3-10.2c0-6.5-4-14.9-13-14.9
			c-1.1-0.1-2.3,0-3.4,0.2c-0.8,0.2-1,0.6-1,1.6L40.2,318.5z M53.9,326.2c-2.6-1.6-5.6-2.4-8.6-2.3h-4.5c-0.4,0-0.6,0.2-0.6,0.7
			v22.8c0,6.3,0.3,8,3.6,9.1c2.4,0.9,5,1.2,7.6,1.1c4.7,0,12.5-2.3,12.5-12.3c0.2-7.7-3.5-14.9-9.9-19.1H53.9z"/>
	</g>
	<g id="DECK" fill="#fff">
		<path d="M387.2,240.5h0.5c3.5-3.5,18.6-17.2,21.6-20.4s5.1-5.2,5.1-6.9c0.1-0.9-0.5-1.7-1.4-1.9
			c-0.9-0.2-1.4-0.4-1.4-1s0.6-0.9,1.6-0.9c2.2,0,7.9,0.2,10.7,0.2c3.2,0,8.9-0.2,12.1-0.2c1,0,1.8,0.2,1.8,0.9s-0.6,1-1.5,1
			c-2,0.1-4.1,0.4-6,1.1c-4.1,1.5-7.8,3.8-11,6.8c-3.3,2.9-18.7,16.4-21.9,19.7c1.8,2.2,7.8,8.2,13.9,14.1
			c6.3,6.1,11.3,10.8,14.2,13.4c2.1,1.9,3.8,3.5,5.1,4.6c-3.4-6.5-4.2-14-2.2-21.1c1.4,5.3,4.4,10.1,8.6,13.6
			c2.7,2.3,5.9,3.9,9.3,4.9c-1.4,3.6-3.9,6.7-7,9c-1.2,0.9-5.8,4.2-11.4,3.8c-6.1-0.5-10.2-5.1-12.7-8c-6.3-7.5-15-16.5-26.5-27.8
			l-1.1-1.3h-0.5v8.4c0,8.5,0,15.8,0.2,19.8c0.2,2.6,1.2,4.4,3.7,4.8c1.7,0.2,3.4,0.3,5.1,0.3c0.8,0,1.4,0.5,1.4,1s-0.8,1-2,1
			c-5.8,0-13.2-0.3-15.8-0.3s-8.9,0.3-13,0.3c-1.3,0-2-0.3-2-1s0.4-1,1.7-1c1.2,0,2.4-0.1,3.6-0.3c2.1-0.4,2.7-2.2,3-4.9
			c0.5-3.9,0.5-11.2,0.5-19.7v-16.3c0-14.1,0-16.7-0.1-19.6s-1.2-4.1-4.5-5c-1.4-0.2-2.7-0.3-4.1-0.3c-1,0-1.8-0.3-1.8-1
			s0.8-0.9,2.4-0.9c5.4,0,12,0.2,14.5,0.2s9.9-0.2,13.3-0.2c1.5,0,2.2,0.2,2.2,0.9s-0.6,1-1.4,1c-1,0-2,0.1-3,0.3
			c-2.8,0.4-3.6,1.8-3.9,5s0,5.6,0,19.6L387.2,240.5z"/>
		<path d="M293.8,269.5c-14.5-11.5-17.2-32.5-6-47.3c1.5-2,3.3-3.8,5.2-5.4c7.5-6.1,17.4-9.8,32.8-9.8
			c5,0,10.1,0.3,15,1c3.9,0.6,7.3,1.2,10.3,1.5c1.2,0,1.5,0.5,1.5,1.1s-0.2,1.9-0.5,5.2s-0.2,8.2-0.4,10c0,1.3-0.5,2.3-1.4,2.3
			s-1.1-0.8-1.1-2c-0.2-3.3-1.6-6.4-4-8.6c-3.5-3.1-10.5-5.4-20-5.4c-9.1,0-14.8,1.5-19.5,5.2c-7.6,6.1-9.5,15-9.5,24.1
			c0,22,18.3,32.5,32.2,32.5c9.2,0,14.2-0.6,18.3-4.9c1.7-1.7,2.9-3.9,3.5-6.2c0.2-1.4,0.5-1.9,1.3-1.9s1.2,0.9,1.2,1.6
			c-0.4,4.2-1.1,8.3-2.2,12.3c-0.5,1.6-0.9,2.1-2.7,2.7c-6.1,1.6-12.4,2.3-18.7,2.1C315.2,279.6,303.2,276.9,293.8,269.5z"/>
		<path d="M226.4,236v-19.7c0-2.9-1.2-4.1-4.5-5c-1.4-0.2-2.7-0.4-4.1-0.3c-0.7-0.1-1.3-0.4-1.8-1
			c0.7-0.6,1.5-0.9,2.4-0.9c5.4,0,12,0.2,14.9,0.2h28.2c1.5-0.1,2.9-0.2,4.4-0.5c0.5-0.2,1.1-0.3,1.6-0.4c0.6,0,0.7,0.4,0.7,0.9
			c-0.4,2-0.7,4-0.8,6c-0.1,2-0.3,4.1-0.6,6.1c0,0.4-0.4,1.5-1.2,1.5s-0.8-0.4-0.8-1.2c0-1.2-0.2-2.3-0.7-3.4
			c-0.8-1.6-1.7-2.9-6.8-3.4c-1.8-0.2-14.1-0.4-16.2-0.4c-0.5,0-0.7,0.3-0.7,0.9v22.9c0,0.6,0,1,0.7,1c2.4,0,15.8,0,18.1-0.2
			s4-0.4,4.9-1.4s1.2-1.2,1.6-1.2c0.5,0,0.9,0.5,0.8,1c0,0,0,0,0,0l0,0c0,0.5-0.2,2.1-0.8,6.8c-0.3,1.8-0.5,5.6-0.5,6.2s0,2.1-1,2.1
			s-1-0.3-1-0.8c-0.1-1-0.1-2.2-0.4-3.4c-0.6-1.9-1.9-3.3-5.8-3.6c-1.9-0.2-13.6-0.4-16.2-0.4c-0.5,0-0.6,0.4-0.6,1v7.4
			c0,3.1-0.1,11,0,13.7c0.2,6.3,3.4,7.8,14,7.8c3.3,0.1,6.6-0.3,9.8-1.2c2.5-1.1,3.8-3,4.5-6.9c0.3-1,0.5-1.4,1.2-1.4
			s0.9,1.2,0.9,2.2c-0.2,3.5-0.6,6.9-1.4,10.3c-0.7,2.4-1.6,2.4-5.5,2.4c-7.6,0-14,0-19-0.3s-8.9-0.2-12-0.2h-5.9
			c-2.5,0-5.1,0.2-7.2,0.2c-1.3,0-2-0.3-2-1s0.4-1,1.6-1c1.2,0,2.3-0.2,3.4-0.4c2.1-0.4,2.7-2.2,3.1-4.9c0.5-3.9,0.5-11.2,0.5-19.7
			L226.4,236z"/>
		<path d="M134.7,235.5c0-14.1,0-16.7-0.2-19.7s-1-4.6-4.3-5.3c-1.3-0.2-2.6-0.3-3.9-0.3c-1.1,0-1.7-0.2-1.7-0.8
			s0.7-0.8,2.2-0.8c5.3,0,11.6,0.3,14.4,0.3c3.1,0,9.4-0.3,15.4-0.3c12.5,0,29.3,0,40.2,10.6c6.4,6.2,9.9,14.7,9.7,23.6
			c0.1,9.8-3.8,19.1-10.9,25.9c-4.6,4.4-15.1,11-33.6,11c-3.6,0-7.7-0.3-11.5-0.6s-7.3-0.5-9.8-0.5H135c-2.4,0-4.9,0.2-6.9,0.2
			c-1.3,0-2-0.3-2-1s0.4-0.7,1.6-0.7c1.2,0,2.4-0.1,3.6-0.4c2-0.4,2.5-2.4,2.9-5.1c0.5-3.9,0.5-11.3,0.5-19.8L134.7,235.5z
			 M147.3,245.7c0,9.9,0,17,0.2,18.8c0,2.3,0.3,6,1.1,7c1.3,1.8,5.2,3.7,13,3.7c10.2,0,17-1.9,23-6.6c6.5-5.1,8.4-13.6,8.4-23.1
			c0.3-8.8-3.2-17.2-9.6-23.2c-9.1-8.1-20.6-9.2-28.4-9.2c-2.2,0-4.4,0.2-6.5,0.7c-0.8,0.2-1.3,1-1.2,1.9L147.3,245.7L147.3,245.7z"
			/>
	</g>
	<g id="MY" fill="#fff">
		<path d="M246.3,192.7c0.5-0.3,1-0.8,1.3-1.4c1.5-2,3.2-3.7,5-5.4l0.3,0.3c1.2-1.5,2.4-3,3.7-4.4c3.6-4.8,5-10.8,3.9-16.7
			c-0.3-1.5-0.7-3-1.1-4.5c-9.4-24.3-30-71.9-30.4-71.7c-8.8,17.7-17.8,35.6-26.9,53.5c-9,17.6-18,35.1-27,52.4
			c-10.7-20.3-21.3-41.8-31.7-64.4c-6.9-14.9-13.3-29.6-19.3-44c-25.4,52.2-50.8,104.3-76.3,156.5c8.5-9.6,19.2-17,31.2-21.7
			c7.3-2.8,15-4.5,22.8-5.1c-6.8,4.8-12.7,10.8-17.5,17.5c-13.6,19-14.4,39.2-14.3,47.7c-3.5,0.1-22.1,0.5-37.1-13.9
			c-0.5-0.5-1-1-1.5-1.5C17.6,251.6,15,229.8,24,212l28.7-56.7l54-106.6c1.5-3,0.8-6.7-1.8-8.8c-7-5.8-20.2-16.5-22.1-20.1h76.3
			c7,23.9,16.1,47.2,27.2,69.5c1.1,2.1,2.1,4.2,3.2,6.3c15.8-29.8,25.4-52.7,24.1-56.9c-0.5-1.4-1.1-2.7-1.9-3.9
			c-1.4-1.9-3.2-3.5-5.2-4.7c-2.6-1.5-6.2-4.3-10.9-10.3h87.1c0.2,0.8-4.9,9.2-6.9,11c-1.6,1.7-2.9,3.6-3.9,5.7
			c-0.3,1.5-0.6,2.9-0.8,4.2c0.6,2.7,1.3,5.5,2.1,8.2c12.5,31.9,25.1,63.2,37.8,94c3.6,8.8,7.8,17.4,12.5,25.7
			c5.5,7.8,10.8,15.8,16.1,24c-18.1,0.5-36.8,0.6-55.8,0.5C271,193.1,258.6,193,246.3,192.7z"/>
		<path d="M393.5,147c-3.1-7.1-6.3-14.3-9.6-21.6c-9.4-20.5-19.3-40.1-29.4-58.7c-1.7-3.1-3.9-5.9-6.4-8.4
			c-3.2-3.2-5.9-6.8-8.3-10.6l-0.4-0.7c13.9,0.2,28.2,0.2,42.8,0c9.5-0.1,18.9-0.4,28.1-0.7c-0.4,0.2-6.1,5.2-7.9,6.8l0,0h0
			c-1.4,1.6-2.5,3.6-3,5.7c-0.3,1.6-0.3,3.2,0,4.8c0.2,0.8,0.4,1.5,0.6,2.3l0.2,0.6c0.6,1.3,15.6,32.5,22,45.7
			c13.5-22,27-44,40.5-66.1c-3.7,3.6-8,6.6-12.7,8.9c-7.8,3.7-16.4,5.6-25,5.5c5-3.1,15.6-10.5,21.5-23.6c2.5-5.6,3.8-11.5,3.9-17.6
			c1.3,0.2,20.8,2.9,29,19c5.5,10.8,3.8,23.6-4.6,33.1l-46,74.8v20.6c-0.6,3.7-0.4,7.6,0.7,11.2c2.5,8.9,9.2,14.3,12,16.2h-61.2
			c4.4-2.8,8-6.8,10.3-11.4c2-4.3,1.9-7.5,2.2-18.3C393,160.6,393.2,154.6,393.5,147z"/>
	</g>
</g>
</svg>